<svg viewBox="0 0 1497 411" fill="none" xmlns="http://www.w3.org/2000/svg">
<g clip-path="url(#clip0_177_2419)">
<path d="M0 106.806C6.19737 95.7527 16.0615 89.1516 26.9069 82.9906C71.2181 57.8807 115.323 32.4084 159.221 6.57369C174.172 -2.2795 187.625 -2.12418 202.499 6.57369C248.618 33.8322 295.098 60.4176 341.578 86.8218C355.238 94.5878 361.72 105.149 361.591 121.121C361.126 176.337 361.255 231.579 361.591 286.795C361.591 299.997 356.968 310.093 345.529 316.772C292.542 347.369 239.511 377.898 186.438 408.358C185.095 409.135 183.571 409.652 180.524 410.947C180.524 384.491 180.137 359.433 180.731 334.374C180.937 325.625 178.82 322.777 169.55 322.907C126.607 323.399 83.6387 322.415 40.7477 323.45C21.1227 323.916 7.59177 317.652 0.154928 299.428L0 106.806ZM180.963 321.664C215.204 301.913 247.275 283.326 279.501 264.999C283.788 262.565 283.762 259.252 283.762 255.369C283.762 220.733 283.581 186.071 283.762 151.409C283.973 148.918 283.396 146.424 282.112 144.282C280.828 142.139 278.902 140.457 276.609 139.475C247.223 122.856 217.958 105.978 188.813 88.841C186.451 87.1253 183.609 86.2015 180.692 86.2015C177.775 86.2015 174.933 87.1253 172.571 88.841C143.133 106.271 113.489 123.356 83.6387 140.096C78.2934 143.099 76.9765 146.62 77.0281 152.263C77.2347 180.479 77.3638 208.721 77.0281 236.964C77.0281 244.341 79.1972 246.205 86.3758 246.101C113.386 245.713 140.448 246.438 167.458 245.687C177.787 245.403 181.686 247.577 181.118 258.631C180.24 278.719 180.963 298.755 180.963 321.638V321.664Z" fill="#242254"/>
<path d="M616.974 314.624C595.361 314.624 575.658 314.288 556.059 314.806C549.294 314.987 547.306 310.974 544.827 306.47C533.181 285.114 521.586 263.732 509.76 242.479C508.03 239.372 507.023 233.755 502.349 235.075C497.675 236.395 500.076 241.728 500.051 245.197C499.792 265.285 499.612 285.399 500.051 305.512C500.231 312.812 498.088 315.065 490.729 314.78C476.165 314.236 461.524 314.184 446.831 314.78C439.084 315.116 437.741 312.191 437.741 305.279C437.982 238.113 437.982 170.946 437.741 103.779C437.741 97.5402 438.774 94.5115 446.03 94.7186C481.613 95.7023 517.3 92.6477 552.728 96.7637C578.938 99.7924 600.448 111.571 610.699 137.25C620.486 161.765 619.118 185.71 602.643 207.61C595.815 216.521 586.464 223.161 575.813 226.662C568.454 229.251 568.841 231.839 572.224 237.457C586.271 260.884 599.957 284.544 613.746 308.127C614.779 309.525 615.296 311.078 616.974 314.624ZM499.921 169.997C499.921 175.562 499.921 181.128 499.921 186.667C499.921 190.033 500.515 192.518 504.699 192.363C516.267 191.922 527.939 192.363 539.326 190.887C547.59 189.826 552.444 183.432 553.916 175.019C556.627 159.487 547.744 148.433 531.528 147.553C499.921 145.948 499.921 145.948 499.921 169.997Z" fill="#242254"/>
<path d="M1437.07 239.476C1421.19 239.476 1405.31 239.864 1389.43 239.321C1381.24 239.062 1379.54 242.427 1381.68 249.209C1384.47 257.674 1388.88 264.741 1398.7 266.372C1408.51 268.003 1418.4 267.615 1423.98 258.347C1427.85 251.953 1432.55 251.41 1438.75 251.487C1453.34 251.72 1467.93 252.005 1482.51 251.487C1491.91 251.125 1493.33 254.076 1490.44 262.593C1479.24 295.986 1442.54 319.388 1404.38 316.954C1371.4 314.858 1343.87 302.898 1329.49 271.575C1314.18 238.441 1314.98 204.892 1335.02 173.699C1355.06 142.505 1400.35 130.132 1441.17 143.256C1475.72 154.361 1497.98 187.393 1496.9 225.29C1496.61 235.334 1494.32 240.822 1482.05 239.813C1467.18 238.467 1452.07 239.476 1437.07 239.476ZM1406.31 212.399C1412.3 212.399 1418.35 211.907 1424.26 212.399C1434.77 213.512 1434.59 207.869 1431.72 200.983C1425.11 184.338 1398.15 181.723 1386.61 196.608C1383.49 200.595 1379.82 205.643 1381.91 210.406C1383.74 214.599 1389.53 211.881 1393.53 212.218C1397.53 212.554 1402.05 212.399 1406.31 212.399Z" fill="#242254"/>
<path d="M748.306 239.476C731.987 239.476 715.667 239.735 699.244 239.476C692.633 239.347 691.187 241.625 692.608 247.76C694.699 256.742 698.986 263.913 708.282 266.113C718.275 268.469 728.94 268.339 734.905 258.658C738.855 252.367 743.374 251.461 749.701 251.591C764.29 251.85 778.932 252.29 793.599 251.591C804.418 250.97 804.393 254.956 801.346 263.292C790.113 295.184 757.809 316.877 719.928 317.394C681.581 317.938 650.026 298.109 637.296 265.621C623.042 228.371 631.848 183.665 658.445 159.642C683.389 137.069 729.482 131.685 762.586 147.475C792.721 161.868 809.066 192.026 807.285 228.914C806.897 236.913 804.496 240.097 795.949 239.761C780.094 239.01 764.187 239.476 748.306 239.476ZM718.378 212.399C724.782 212.399 731.289 212.062 737.564 212.399C744.381 212.865 745.647 210.043 743.917 204.115C740.921 193.76 733.588 188.583 723.594 187.263C712.336 185.761 702.42 188.894 695.939 199.041C693.873 202.277 691.652 206.082 693.021 209.784C694.802 214.625 699.631 211.881 703.066 212.192C708.256 212.735 713.265 212.399 718.378 212.399Z" fill="#242254"/>
<path d="M818.595 140.46C837.497 140.46 855.547 141.029 873.519 140.227C881.937 139.839 884.364 143.592 886.275 150.582C894.667 180.972 903.447 211.285 912.098 241.624C912.898 244.42 914.008 247.138 915.868 252.393C926.016 217.11 935.932 184.389 944.66 151.436C947.035 142.505 950.676 140.046 959.507 140.408C976.989 141.133 994.523 140.615 1013.73 140.615C1005.32 165.259 997.389 188.557 989.358 211.829C978.642 242.893 967.564 273.775 957.287 305.02C954.911 312.243 952.122 315.375 944.066 315.064C924.776 314.391 905.332 314.806 886.12 314.883C881.266 314.883 877.418 314.883 875.326 308.8C856.657 253.92 837.574 199.145 818.672 144.343C818.484 143.057 818.458 141.752 818.595 140.46V140.46Z" fill="#242254"/>
<path d="M1114 140.486C1134.32 140.486 1153.97 140.719 1173.63 140.486C1181.37 140.331 1181.09 146.362 1182.35 150.841C1191.21 181.154 1199.81 211.518 1208.38 241.909C1208.85 245.179 1210.38 248.201 1212.75 250.504C1222.46 216.851 1232.32 183.483 1241.44 150.012C1243.37 142.945 1245.95 140.227 1253.49 140.486C1269.79 141.081 1286.11 140.822 1302.56 140.486C1308.52 140.486 1309.89 141.858 1307.72 147.864C1289.16 201 1270.81 254.205 1252.67 307.48C1250.58 313.641 1247.22 314.935 1241.36 314.832C1221.6 314.555 1201.8 314.555 1181.97 314.832C1176.05 314.832 1172.88 313.382 1170.84 307.35C1152.55 253.636 1133.91 200.077 1115.42 146.44C1114.96 144.783 1114.67 143.126 1114 140.486Z" fill="#242254"/>
<path d="M1032.74 227.594C1032.74 202.381 1033.26 177.167 1032.48 152.005C1032.15 141.961 1035.48 139.735 1044.77 140.253C1058.43 141.055 1072.2 140.693 1085.91 140.253C1092.13 140.098 1095.07 141.366 1095.05 148.588C1094.77 201.103 1094.77 253.644 1095.05 306.211C1095.05 313.278 1092.47 314.78 1086.01 314.624C1071.01 314.262 1056.01 314.158 1041.03 314.624C1033.82 314.857 1032.56 311.88 1032.64 305.616C1032.87 279.704 1032.74 253.662 1032.74 227.594Z" fill="#242254"/>
<path d="M1064.14 124.462C1042.99 124.618 1027.76 111.364 1027.83 92.9326C1027.91 74.5014 1042.81 61.4547 1064.19 61.4547C1085.11 61.4547 1100.34 75.0968 1100.03 93.5798C1099.75 111.208 1084.49 124.333 1064.14 124.462Z" fill="#242254"/>
</g>
<defs>
<clipPath id="clip0_177_2419">
<rect width="1497" height="411" fill="white"/>
</clipPath>
</defs>
</svg>
